Coordinates
nRows=6
nColumns=38

# SIMM Motion File Header:
name Coordinates
datacolumns 38
datarows 6
otherdata 1
range 0.47250000000000003000 0.47750000000000004000

Units are S.I. units (second, meters, Newtons, ...)
Angles are in degrees.

endheader
time	pelvis_tilt	pelvis_list	pelvis_rotation	pelvis_tx	pelvis_ty	pelvis_tz	hip_flexion_r	hip_adduction_r	hip_rotation_r	knee_angle_r	ankle_angle_r	subtalar_angle_r	mtp_angle_r	hip_flexion_l	hip_adduction_l	hip_rotation_l	knee_angle_l	ankle_angle_l	subtalar_angle_l	mtp_angle_l	lumbar_extension	lumbar_bending	lumbar_rotation	arm_flex_r	arm_add_r	arm_rot_r	elbow_flex_r	pro_sup_r	wrist_flex_r	wrist_dev_r	arm_flex_l	arm_add_l	arm_rot_l	elbow_flex_l	pro_sup_l	wrist_flex_l	wrist_dev_l
      0.47250000000000003000	     -6.55900608213164830000	     -2.23006783947149010000	     -0.29808026716990949000	      0.91336825602067628000	      0.99115684946240035000	     -0.35899043589049889000	     -1.32552414859239940000	     11.12125729926668400000	      6.24973097127416470000	    -26.63709495629498400000	     17.97208368788739500000	     -0.00000000000000866527	     -0.00000000000003263730	     43.21631528166778200000	      2.24517746316561120000	      6.01469668229379550000	   -111.11411470815568000000	      5.46137647945544380000	      0.00000000000000526766	      0.00000000000000592296	     -1.94135220575209470000	      5.72235544232435080000	     10.26449762662602100000	    -23.26685921339150600000	    -14.48822977872852900000	    -14.33705260715637700000	    118.02115443073110000000	     92.52938307059956500000	      0.00000000000000033733	     -0.00000000000000806264	    -32.89879785688872700000	    -20.30238968258871100000	     -1.47664589749191260000	    123.14156624541572000000	     92.95550981124606000000	     -0.00000000000000172584	     -0.00000000000000417952
      0.47350000000000003000	     -6.59835433006734460000	     -2.09521245669420870000	     -0.27614669283382626000	      0.91375027123045460000	      0.99150173737614911000	     -0.35914747615065318000	     -1.82307854339491680000	     10.91545663443946900000	      6.30489533773479320000	    -26.18937754657675400000	     17.41987653242411200000	     -0.00000000000000839509	     -0.00000000000003337449	     43.49695764016959000000	      2.41609196021992780000	      6.01684127170660690000	   -110.79199362472545000000	      5.50162406138118600000	      0.00000000000000544117	      0.00000000000000596453	     -1.83460107430400600000	      5.57938779010673970000	     10.42757996389699400000	    -23.28522358616652000000	    -14.51037350684707600000	    -14.18911805331989300000	    118.35895414327082000000	     92.66860966214535700000	      0.00000000000000032285	     -0.00000000000000810357	    -33.08540694344478800000	    -20.28199101677934700000	     -1.51169229928200630000	    123.26619069656783000000	     92.88931415297966500000	     -0.00000000000000177498	     -0.00000000000000425662
      0.47450000000000003000	     -6.63779322655337100000	     -1.95756064978721930000	     -0.25453911281121333000	      0.91414146623509485000	      0.99185204894909096000	     -0.35930272202629093000	     -2.31953117637729410000	     10.70646019076703200000	      6.35668123676215570000	    -25.73861029954866500000	     16.84767424181704200000	     -0.00000000000000812925	     -0.00000000000003412708	     43.77228647504932000000	      2.58800684252068080000	      6.01482871633663410000	   -110.46221838259338000000	      5.54234885271404210000	      0.00000000000000560614	      0.00000000000000599360	     -1.72658850035919300000	      5.43268118207353280000	     10.58903556160111700000	    -23.30384169101513300000	    -14.53075124709812500000	    -14.03983351176786500000	    118.69528652010966000000	     92.81209487081382300000	      0.00000000000000030827	     -0.00000000000000815412	    -33.27511892165213000000	    -20.25990840477689400000	     -1.55223759250040730000	    123.39269092372116000000	     92.83171127291379300000	     -0.00000000000000181415	     -0.00000000000000433274
      0.47550000000000003000	     -6.67725023052211330000	     -1.81713357690553320000	     -0.23307865338250727000	      0.91454146651567003000	      0.99220760830364574000	     -0.35945634992895820000	     -2.81480028417417530000	     10.49432599376572000000	      6.40460617483558450000	    -25.28494661899431500000	     16.25570820151866200000	     -0.00000000000000790716	     -0.00000000000003485756	     44.04229355316800800000	      2.76100244883465830000	      6.00884713403677400000	   -110.12487559231512000000	      5.58355409337890230000	      0.00000000000000576993	      0.00000000000000601692	     -1.61746083466952690000	      5.28223840824902520000	     10.74862736071956700000	    -23.32253439555511700000	    -14.54931955106387200000	    -13.88917616390922700000	    119.02999946765974000000	     92.95973920505630900000	      0.00000000000000029444	     -0.00000000000000820666	    -33.46794784555211800000	    -20.23607541998234200000	     -1.59833100627840420000	    123.52098699339071000000	     92.78254314750948600000	     -0.00000000000000185077	     -0.00000000000000440734
      0.47650000000000003000	     -6.71667959603570800000	     -1.67394764763803640000	     -0.21166465701772441000	      0.91494986706764647000	      0.99256820887209674000	     -0.35960843822044497000	     -3.30875999934291440000	     10.27910780600401700000	      6.44825721452235710000	    -24.82859317885193600000	     15.64426318049558700000	     -0.00000000000000778173	     -0.00000000000003556668	     44.30699004714587400000	      2.93511120652140490000	      5.99902789235932850000	   -109.78004586348978000000	      5.62524912007340830000	      0.00000000000000591649	      0.00000000000000606646	     -1.50734425538323080000	      5.12805968234193710000	     10.90619905635409200000	    -23.34113141549388700000	    -14.56604211906569400000	    -13.73712547308992500000	    119.36294509440778000000	     93.11142778303782600000	      0.00000000000000028110	     -0.00000000000000826835	    -33.66390156013518700000	    -20.21042446237594700000	     -1.65000481370536730000	    123.65099463623993000000	     92.74162473941358100000	     -0.00000000000000188104	     -0.00000000000000448311
      0.47750000000000004000	     -6.75604426811170990000	     -1.52802165705811130000	     -0.19024075706226359000	      0.91536624122000443000	      0.99293363629202147000	     -0.35975901376735131000	     -3.80126603501832070000	     10.06086220970969000000	      6.48726307271594040000	    -24.36979087645992700000	     15.01367279869559800000	     -0.00000000000000770321	     -0.00000000000003629174	     44.56639157154212000000	      3.11033493214453080000	      5.98547444434009360000	   -109.42780590157079000000	      5.66744605408050810000	      0.00000000000000606064	      0.00000000000000612134	     -1.39636163922879540000	      4.97015051163962780000	     11.06164232716250200000	    -23.35946867110223500000	    -14.58089049894684000000	    -13.58366340922239400000	    119.69398117510799000000	     93.26702976829756200000	      0.00000000000000026789	     -0.00000000000000836029	    -33.86297877360644300000	    -20.18288753510147500000	     -1.70727429054584800000	    123.78262669561094000000	     92.70874489272175400000	     -0.00000000000000191065	     -0.00000000000000456238
